<mxfile host="65bd71144e" scale="1" border="10">
    <diagram name="Página-1" id="DsXTSRM2CRbVoGrTXbLG">
        <mxGraphModel dx="2473" dy="2282" grid="1" gridSize="10" guides="1" tooltips="1" connect="1" arrows="1" fold="1" page="1" pageScale="1" pageWidth="827" pageHeight="1169" math="0" shadow="0">
            <root>
                <mxCell id="0"/>
                <mxCell id="81" value="back" parent="0"/>
                <mxCell id="82" value="" style="rounded=0;whiteSpace=wrap;html=1;fillColor=default;" parent="81" vertex="1">
                    <mxGeometry x="-170" y="-30" width="1140" height="1480" as="geometry"/>
                </mxCell>
                <mxCell id="125" value="" style="rounded=0;whiteSpace=wrap;html=1;" parent="81" vertex="1">
                    <mxGeometry x="190" y="730" width="590" height="660" as="geometry"/>
                </mxCell>
                <mxCell id="126" value="Healthcare System" style="shape=folder;fontStyle=1;spacingTop=10;tabWidth=40;tabHeight=14;tabPosition=left;html=1;whiteSpace=wrap;align=center;verticalAlign=top;" parent="81" vertex="1">
                    <mxGeometry x="238" y="780" width="482" height="570" as="geometry"/>
                </mxCell>
                <mxCell id="127" value="MDR" style="shape=folder;fontStyle=1;spacingTop=10;tabWidth=40;tabHeight=14;tabPosition=left;html=1;whiteSpace=wrap;verticalAlign=top;" parent="81" vertex="1">
                    <mxGeometry x="530" y="1170" width="144" height="140" as="geometry"/>
                </mxCell>
                <mxCell id="128" style="edgeStyle=none;html=1;dashed=1;dashPattern=12 12;" parent="81" source="131" target="127" edge="1">
                    <mxGeometry relative="1" as="geometry">
                        <Array as="points">
                            <mxPoint x="355" y="1240"/>
                        </Array>
                    </mxGeometry>
                </mxCell>
                <mxCell id="129" style="edgeStyle=none;html=1;entryX=0;entryY=0;entryDx=0;entryDy=77;entryPerimeter=0;exitX=0;exitY=0;exitDx=150;exitDy=77;exitPerimeter=0;strokeColor=default;dashed=1;dashPattern=12 12;" parent="81" source="131" target="135" edge="1">
                    <mxGeometry relative="1" as="geometry">
                        <Array as="points"/>
                    </mxGeometry>
                </mxCell>
                <mxCell id="130" style="edgeStyle=none;html=1;entryX=0;entryY=0;entryDx=0;entryDy=77;entryPerimeter=0;exitX=0.75;exitY=1;exitDx=0;exitDy=0;exitPerimeter=0;dashed=1;dashPattern=12 12;" parent="81" source="131" target="133" edge="1">
                    <mxGeometry relative="1" as="geometry">
                        <Array as="points">
                            <mxPoint x="393" y="1087"/>
                        </Array>
                    </mxGeometry>
                </mxCell>
                <mxCell id="131" value="UI" style="shape=folder;fontStyle=1;spacingTop=10;tabWidth=40;tabHeight=14;tabPosition=left;html=1;whiteSpace=wrap;verticalAlign=top;" parent="81" vertex="1">
                    <mxGeometry x="280" y="840" width="150" height="140" as="geometry"/>
                </mxCell>
                <mxCell id="132" style="edgeStyle=none;html=1;exitX=0.5;exitY=1;exitDx=0;exitDy=0;exitPerimeter=0;dashed=1;dashPattern=8 8;" parent="81" source="133" edge="1">
                    <mxGeometry relative="1" as="geometry">
                        <mxPoint x="602" y="1180" as="targetPoint"/>
                    </mxGeometry>
                </mxCell>
                <mxCell id="133" value="Planeamento" style="shape=folder;fontStyle=1;spacingTop=10;tabWidth=40;tabHeight=14;tabPosition=left;html=1;whiteSpace=wrap;verticalAlign=top;" parent="81" vertex="1">
                    <mxGeometry x="530" y="1010" width="144" height="140" as="geometry"/>
                </mxCell>
                <mxCell id="134" style="edgeStyle=none;html=1;exitX=0.5;exitY=1;exitDx=0;exitDy=0;exitPerimeter=0;entryX=0.5;entryY=0.079;entryDx=0;entryDy=0;entryPerimeter=0;dashed=1;dashPattern=8 8;" parent="81" source="135" target="133" edge="1">
                    <mxGeometry relative="1" as="geometry"/>
                </mxCell>
                <mxCell id="135" value="MDV" style="shape=folder;fontStyle=1;spacingTop=10;tabWidth=40;tabHeight=14;tabPosition=left;html=1;whiteSpace=wrap;verticalAlign=top;" parent="81" vertex="1">
                    <mxGeometry x="530" y="840" width="144" height="140" as="geometry"/>
                </mxCell>
                <mxCell id="59" value="Box" parent="0"/>
                <mxCell id="60" value="" style="group" parent="59" vertex="1" connectable="0">
                    <mxGeometry x="80" y="110" width="680" height="500" as="geometry"/>
                </mxCell>
                <mxCell id="61" value="«Component»&lt;br&gt;«System (C4)»&lt;br&gt;&lt;b&gt;Healthcare System&lt;br&gt;&lt;br&gt;&lt;br&gt;&lt;br&gt;&lt;br&gt;&lt;br&gt;&lt;br&gt;&lt;br&gt;&lt;br&gt;&lt;br&gt;&lt;br&gt;&lt;br&gt;&lt;br&gt;&lt;br&gt;&lt;br&gt;&lt;br&gt;&lt;br&gt;&lt;br&gt;&lt;br&gt;&lt;br&gt;&lt;br&gt;&lt;br&gt;&lt;br&gt;&lt;br&gt;&lt;br&gt;&lt;br&gt;&lt;br&gt;&lt;br&gt;&lt;br&gt;&lt;br&gt;&lt;br&gt;&lt;/b&gt;" style="html=1;dropTarget=0;whiteSpace=wrap;" parent="60" vertex="1">
                    <mxGeometry width="680" height="490" as="geometry"/>
                </mxCell>
                <mxCell id="62" value="" style="shape=module;jettyWidth=8;jettyHeight=4;" parent="61" vertex="1">
                    <mxGeometry x="1" width="20" height="20" relative="1" as="geometry">
                        <mxPoint x="-30" y="8" as="offset"/>
                    </mxGeometry>
                </mxCell>
                <mxCell id="66" value="MDV API" style="text;html=1;align=center;verticalAlign=middle;resizable=0;points=[];autosize=1;strokeColor=none;fillColor=none;" parent="60" vertex="1">
                    <mxGeometry x="299" y="100" width="70" height="30" as="geometry"/>
                </mxCell>
                <mxCell id="67" value="MDR API" style="text;html=1;align=center;verticalAlign=middle;resizable=0;points=[];autosize=1;strokeColor=none;fillColor=none;" parent="60" vertex="1">
                    <mxGeometry x="240" y="370" width="70" height="30" as="geometry"/>
                </mxCell>
                <mxCell id="68" value="Planeamento API" style="text;html=1;align=center;verticalAlign=middle;resizable=0;points=[];autosize=1;strokeColor=none;fillColor=none;" parent="60" vertex="1">
                    <mxGeometry x="200" y="220" width="120" height="30" as="geometry"/>
                </mxCell>
                <mxCell id="33" value="" style="group" parent="60" vertex="1" connectable="0">
                    <mxGeometry x="480" y="370" width="160" height="90" as="geometry"/>
                </mxCell>
                <mxCell id="34" value="«Component»&lt;br&gt;«Container (C4)»&lt;br&gt;&lt;b&gt;MDR&lt;/b&gt;" style="html=1;dropTarget=0;whiteSpace=wrap;" parent="33" vertex="1">
                    <mxGeometry width="150" height="90" as="geometry"/>
                </mxCell>
                <mxCell id="35" value="" style="shape=module;jettyWidth=8;jettyHeight=4;" parent="34" vertex="1">
                    <mxGeometry x="1" width="20" height="20" relative="1" as="geometry">
                        <mxPoint x="-30" y="8" as="offset"/>
                    </mxGeometry>
                </mxCell>
                <mxCell id="28" value="" style="group" parent="60" vertex="1" connectable="0">
                    <mxGeometry x="480" y="70" width="160" height="90" as="geometry"/>
                </mxCell>
                <mxCell id="29" value="«Component»&lt;br&gt;«Container (C4)»&lt;br&gt;&lt;b&gt;MDV&lt;/b&gt;" style="html=1;dropTarget=0;whiteSpace=wrap;" parent="28" vertex="1">
                    <mxGeometry width="150" height="90" as="geometry"/>
                </mxCell>
                <mxCell id="31" value="" style="whiteSpace=wrap;html=1;aspect=fixed;" parent="28" vertex="1">
                    <mxGeometry x="-4" y="10" width="15" height="15" as="geometry"/>
                </mxCell>
                <mxCell id="32" value="" style="whiteSpace=wrap;html=1;aspect=fixed;" parent="28" vertex="1">
                    <mxGeometry x="140" y="50" width="15" height="15" as="geometry"/>
                </mxCell>
                <mxCell id="75" value="" style="whiteSpace=wrap;html=1;aspect=fixed;" parent="28" vertex="1">
                    <mxGeometry x="-4" y="30" width="15" height="15" as="geometry"/>
                </mxCell>
                <mxCell id="122" value="" style="whiteSpace=wrap;html=1;aspect=fixed;" parent="28" vertex="1">
                    <mxGeometry x="140" y="30" width="15" height="15" as="geometry"/>
                </mxCell>
                <mxCell id="30" value="" style="shape=module;jettyWidth=8;jettyHeight=4;" parent="28" vertex="1">
                    <mxGeometry x="1" width="20" height="20" relative="1" as="geometry">
                        <mxPoint x="-40" y="5" as="offset"/>
                    </mxGeometry>
                </mxCell>
                <mxCell id="77" style="edgeStyle=none;jumpSize=6;html=1;strokeWidth=1;endArrow=none;endFill=0;startSize=6;endSize=6;" parent="60" source="75" edge="1">
                    <mxGeometry relative="1" as="geometry">
                        <mxPoint x="330" y="220" as="targetPoint"/>
                    </mxGeometry>
                </mxCell>
                <mxCell id="11" value="" style="group" parent="60" vertex="1" connectable="0">
                    <mxGeometry x="480" y="220" width="160" height="90" as="geometry"/>
                </mxCell>
                <mxCell id="12" value="«Component»&lt;br&gt;«Container (C4)»&lt;br&gt;&lt;b&gt;Planeamento&lt;/b&gt;" style="html=1;dropTarget=0;whiteSpace=wrap;" parent="11" vertex="1">
                    <mxGeometry width="150" height="90" as="geometry"/>
                </mxCell>
                <mxCell id="13" value="" style="shape=module;jettyWidth=8;jettyHeight=4;" parent="12" vertex="1">
                    <mxGeometry x="1" width="20" height="20" relative="1" as="geometry">
                        <mxPoint x="-30" y="8" as="offset"/>
                    </mxGeometry>
                </mxCell>
                <mxCell id="15" value="" style="whiteSpace=wrap;html=1;aspect=fixed;" parent="11" vertex="1">
                    <mxGeometry x="-4" y="30" width="15" height="15" as="geometry"/>
                </mxCell>
                <mxCell id="79" value="" style="whiteSpace=wrap;html=1;aspect=fixed;" parent="11" vertex="1">
                    <mxGeometry x="-4" y="50" width="15" height="15" as="geometry"/>
                </mxCell>
                <mxCell id="86" value="Admin UI" style="edgeStyle=none;html=1;entryX=0.5;entryY=1;entryDx=0;entryDy=0;fontSize=12;endArrow=none;endFill=0;exitX=0;exitY=0.5;exitDx=0;exitDy=0;" parent="59" edge="1">
                    <mxGeometry x="0.2541" relative="1" as="geometry">
                        <mxPoint x="171" y="110" as="sourcePoint"/>
                        <mxPoint x="110" y="30" as="targetPoint"/>
                        <Array as="points">
                            <mxPoint x="116" y="70"/>
                        </Array>
                        <mxPoint as="offset"/>
                    </mxGeometry>
                </mxCell>
                <mxCell id="87" value="Staff UI" style="edgeStyle=none;html=1;entryX=0.5;entryY=1;entryDx=0;entryDy=0;fontSize=12;endArrow=none;endFill=0;exitX=1;exitY=0.5;exitDx=0;exitDy=0;" parent="59" target="91" edge="1">
                    <mxGeometry x="0.1711" y="3" relative="1" as="geometry">
                        <mxPoint x="190" y="110" as="sourcePoint"/>
                        <mxPoint x="255" y="30" as="targetPoint"/>
                        <Array as="points">
                            <mxPoint x="245" y="70"/>
                        </Array>
                        <mxPoint as="offset"/>
                    </mxGeometry>
                </mxCell>
                <mxCell id="88" value="&lt;div&gt;&lt;br&gt;&lt;/div&gt;&lt;div&gt;&lt;br&gt;&lt;/div&gt;&lt;div&gt;&lt;br&gt;&lt;br&gt;&lt;/div&gt;" style="ellipse;whiteSpace=wrap;html=1;aspect=fixed;" parent="59" vertex="1">
                    <mxGeometry x="100" y="10" width="20" height="20" as="geometry"/>
                </mxCell>
                <mxCell id="89" value="&lt;div&gt;&lt;br&gt;&lt;/div&gt;&lt;div&gt;&lt;br&gt;&lt;/div&gt;&lt;div&gt;&lt;br&gt;&lt;br&gt;&lt;/div&gt;" style="ellipse;whiteSpace=wrap;html=1;aspect=fixed;" parent="59" vertex="1">
                    <mxGeometry x="170" width="20" height="20" as="geometry"/>
                </mxCell>
                <mxCell id="91" value="&lt;div&gt;&lt;br&gt;&lt;/div&gt;&lt;div&gt;&lt;br&gt;&lt;/div&gt;&lt;div&gt;&lt;br&gt;&lt;br&gt;&lt;/div&gt;" style="ellipse;whiteSpace=wrap;html=1;aspect=fixed;" parent="59" vertex="1">
                    <mxGeometry x="245" y="10" width="20" height="20" as="geometry"/>
                </mxCell>
                <mxCell id="92" value="Patient UI" style="edgeStyle=none;html=1;entryX=0.5;entryY=1;entryDx=0;entryDy=0;endArrow=none;endFill=0;" parent="59" source="SgMYtQdj60WmwbU-RyWu-6" target="89" edge="1">
                    <mxGeometry x="0.5181" relative="1" as="geometry">
                        <mxPoint as="offset"/>
                    </mxGeometry>
                </mxCell>
                <mxCell id="1" parent="0"/>
                <mxCell id="SgMYtQdj60WmwbU-RyWu-4" value="" style="ellipse;whiteSpace=wrap;html=1;align=center;aspect=fixed;fillColor=none;strokeColor=none;resizable=0;perimeter=centerPerimeter;rotatable=0;allowArrows=0;points=[];outlineConnect=1;" parent="1" vertex="1">
                    <mxGeometry x="125" y="220" width="10" height="10" as="geometry"/>
                </mxCell>
                <mxCell id="SgMYtQdj60WmwbU-RyWu-6" value="" style="whiteSpace=wrap;html=1;aspect=fixed;" parent="1" vertex="1">
                    <mxGeometry x="173" y="103" width="15" height="15" as="geometry"/>
                </mxCell>
                <mxCell id="SgMYtQdj60WmwbU-RyWu-14" value="" style="endArrow=none;html=1;rounded=0;entryX=0.5;entryY=1;entryDx=0;entryDy=0;" parent="1" source="SgMYtQdj60WmwbU-RyWu-10" target="SgMYtQdj60WmwbU-RyWu-6" edge="1">
                    <mxGeometry width="50" height="50" relative="1" as="geometry">
                        <mxPoint x="180" y="160" as="sourcePoint"/>
                        <mxPoint x="230" y="110" as="targetPoint"/>
                    </mxGeometry>
                </mxCell>
                <mxCell id="10" value="" style="group" parent="1" vertex="1" connectable="0">
                    <mxGeometry x="105" y="180" width="160" height="95" as="geometry"/>
                </mxCell>
                <mxCell id="SgMYtQdj60WmwbU-RyWu-10" value="«Component»&lt;br&gt;«Container (C4)»&lt;br&gt;&lt;b&gt;UI&lt;/b&gt;" style="html=1;dropTarget=0;whiteSpace=wrap;" parent="10" vertex="1">
                    <mxGeometry width="150" height="90" as="geometry"/>
                </mxCell>
                <mxCell id="SgMYtQdj60WmwbU-RyWu-11" value="" style="shape=module;jettyWidth=8;jettyHeight=4;" parent="SgMYtQdj60WmwbU-RyWu-10" vertex="1">
                    <mxGeometry x="1" width="20" height="20" relative="1" as="geometry">
                        <mxPoint x="-30" y="8" as="offset"/>
                    </mxGeometry>
                </mxCell>
                <mxCell id="4" value="" style="whiteSpace=wrap;html=1;aspect=fixed;" parent="10" vertex="1">
                    <mxGeometry x="145" y="10" width="15" height="15" as="geometry"/>
                </mxCell>
                <mxCell id="18" value="" style="whiteSpace=wrap;html=1;aspect=fixed;" parent="10" vertex="1">
                    <mxGeometry x="125" y="80" width="15" height="15" as="geometry"/>
                </mxCell>
                <mxCell id="26" value="" style="whiteSpace=wrap;html=1;aspect=fixed;" parent="10" vertex="1">
                    <mxGeometry x="85" y="80" width="15" height="15" as="geometry"/>
                </mxCell>
                <mxCell id="150" value="" style="whiteSpace=wrap;html=1;aspect=fixed;" vertex="1" parent="10">
                    <mxGeometry x="-5" y="20" width="15" height="15" as="geometry"/>
                </mxCell>
                <mxCell id="16" style="edgeStyle=none;html=1;endArrow=halfCircle;endFill=0;" parent="1" source="4" edge="1">
                    <mxGeometry relative="1" as="geometry">
                        <mxPoint x="415" y="198" as="targetPoint"/>
                        <Array as="points">
                            <mxPoint x="340" y="198"/>
                        </Array>
                    </mxGeometry>
                </mxCell>
                <mxCell id="17" style="edgeStyle=none;html=1;endArrow=oval;endFill=0;jumpSize=6;endSize=10;startSize=6;" parent="1" source="31" edge="1">
                    <mxGeometry relative="1" as="geometry">
                        <mxPoint x="415" y="198" as="targetPoint"/>
                        <Array as="points">
                            <mxPoint x="480" y="198"/>
                        </Array>
                    </mxGeometry>
                </mxCell>
                <mxCell id="38" style="edgeStyle=none;jumpSize=6;html=1;endArrow=halfCircle;endFill=0;startSize=6;endSize=6;" parent="1" source="18" edge="1">
                    <mxGeometry relative="1" as="geometry">
                        <mxPoint x="410" y="338" as="targetPoint"/>
                        <Array as="points">
                            <mxPoint x="238" y="320"/>
                            <mxPoint x="330" y="320"/>
                            <mxPoint x="410" y="320"/>
                            <mxPoint x="410" y="330"/>
                        </Array>
                    </mxGeometry>
                </mxCell>
                <mxCell id="39" style="edgeStyle=none;jumpSize=6;html=1;endArrow=oval;endFill=0;startSize=6;endSize=10;" parent="1" source="15" edge="1">
                    <mxGeometry relative="1" as="geometry">
                        <mxPoint x="410" y="338" as="targetPoint"/>
                        <Array as="points">
                            <mxPoint x="490" y="367"/>
                            <mxPoint x="450" y="367"/>
                            <mxPoint x="410" y="367"/>
                        </Array>
                    </mxGeometry>
                </mxCell>
                <mxCell id="40" style="edgeStyle=none;jumpSize=6;html=1;endArrow=halfCircle;endFill=0;startSize=6;endSize=7;" parent="1" source="26" edge="1">
                    <mxGeometry relative="1" as="geometry">
                        <mxPoint x="400" y="487" as="targetPoint"/>
                        <Array as="points">
                            <mxPoint x="198" y="470"/>
                            <mxPoint x="400" y="470"/>
                        </Array>
                    </mxGeometry>
                </mxCell>
                <mxCell id="41" style="edgeStyle=none;jumpSize=6;html=1;endArrow=oval;endFill=0;startSize=6;endSize=10;exitX=0;exitY=0.5;exitDx=0;exitDy=0;" parent="1" source="36" edge="1">
                    <mxGeometry relative="1" as="geometry">
                        <mxPoint x="400" y="487" as="targetPoint"/>
                        <mxPoint x="550" y="490" as="sourcePoint"/>
                        <Array as="points">
                            <mxPoint x="400" y="520"/>
                        </Array>
                    </mxGeometry>
                </mxCell>
                <mxCell id="46" style="edgeStyle=none;jumpSize=6;html=1;endArrow=none;endFill=0;startSize=6;endSize=6;strokeWidth=1;" parent="1" source="32" edge="1">
                    <mxGeometry relative="1" as="geometry">
                        <mxPoint x="405" y="479" as="targetPoint"/>
                        <Array as="points">
                            <mxPoint x="730" y="238"/>
                            <mxPoint x="730" y="450"/>
                            <mxPoint x="560" y="450"/>
                        </Array>
                    </mxGeometry>
                </mxCell>
                <mxCell id="36" value="" style="whiteSpace=wrap;html=1;aspect=fixed;" parent="1" vertex="1">
                    <mxGeometry x="556" y="513" width="15" height="15" as="geometry"/>
                </mxCell>
                <mxCell id="80" style="edgeStyle=none;jumpSize=6;html=1;strokeWidth=1;endArrow=none;endFill=0;startSize=6;endSize=6;" parent="1" source="79" edge="1">
                    <mxGeometry relative="1" as="geometry">
                        <mxPoint x="402" y="478" as="targetPoint"/>
                    </mxGeometry>
                </mxCell>
                <mxCell id="137" style="edgeStyle=none;html=1;exitX=0.25;exitY=1;exitDx=0;exitDy=0;entryX=0;entryY=0;entryDx=0;entryDy=77;entryPerimeter=0;dashed=1;dashPattern=1 2;" parent="1" source="SgMYtQdj60WmwbU-RyWu-10" target="131" edge="1">
                    <mxGeometry relative="1" as="geometry">
                        <Array as="points">
                            <mxPoint x="143" y="917"/>
                        </Array>
                    </mxGeometry>
                </mxCell>
                <mxCell id="138" value="&amp;lt;&amp;lt;manifest&amp;gt;&amp;gt;" style="edgeLabel;html=1;align=center;verticalAlign=middle;resizable=0;points=[];" parent="137" vertex="1" connectable="0">
                    <mxGeometry x="-0.0059" y="6" relative="1" as="geometry">
                        <mxPoint as="offset"/>
                    </mxGeometry>
                </mxCell>
                <mxCell id="139" style="edgeStyle=none;html=1;entryX=0;entryY=0;entryDx=144;entryDy=77;entryPerimeter=0;dashed=1;dashPattern=1 2;" parent="1" target="135" edge="1">
                    <mxGeometry relative="1" as="geometry">
                        <mxPoint x="670" y="270" as="sourcePoint"/>
                        <Array as="points">
                            <mxPoint x="670" y="310"/>
                            <mxPoint x="920" y="310"/>
                            <mxPoint x="920" y="920"/>
                        </Array>
                    </mxGeometry>
                </mxCell>
                <mxCell id="140" value="&amp;lt;&amp;lt;manifest&amp;gt;&amp;gt;" style="edgeLabel;html=1;align=center;verticalAlign=middle;resizable=0;points=[];" parent="139" vertex="1" connectable="0">
                    <mxGeometry x="0.4903" y="-2" relative="1" as="geometry">
                        <mxPoint as="offset"/>
                    </mxGeometry>
                </mxCell>
                <mxCell id="141" style="edgeStyle=none;html=1;exitX=1;exitY=0.75;exitDx=0;exitDy=0;entryX=0;entryY=0;entryDx=144;entryDy=77;entryPerimeter=0;dashed=1;dashPattern=1 2;" parent="1" source="12" target="133" edge="1">
                    <mxGeometry relative="1" as="geometry">
                        <Array as="points">
                            <mxPoint x="870" y="398"/>
                            <mxPoint x="870" y="1087"/>
                        </Array>
                    </mxGeometry>
                </mxCell>
                <mxCell id="142" value="&amp;lt;&amp;lt;manifest&amp;gt;&amp;gt;" style="edgeLabel;html=1;align=center;verticalAlign=middle;resizable=0;points=[];" parent="141" vertex="1" connectable="0">
                    <mxGeometry x="0.5163" y="1" relative="1" as="geometry">
                        <mxPoint as="offset"/>
                    </mxGeometry>
                </mxCell>
                <mxCell id="143" style="edgeStyle=none;html=1;exitX=1;exitY=0.75;exitDx=0;exitDy=0;entryX=0;entryY=0;entryDx=144;entryDy=77;entryPerimeter=0;dashed=1;dashPattern=1 2;" parent="1" source="34" target="127" edge="1">
                    <mxGeometry relative="1" as="geometry">
                        <Array as="points">
                            <mxPoint x="830" y="548"/>
                            <mxPoint x="830" y="1247"/>
                        </Array>
                    </mxGeometry>
                </mxCell>
                <mxCell id="144" value="&amp;lt;&amp;lt;manifest&amp;gt;&amp;gt;" style="edgeLabel;html=1;align=center;verticalAlign=middle;resizable=0;points=[];" parent="143" vertex="1" connectable="0">
                    <mxGeometry x="0.665" y="-2" relative="1" as="geometry">
                        <mxPoint as="offset"/>
                    </mxGeometry>
                </mxCell>
                <mxCell id="146" value="Google OAuth2.0 API" style="text;html=1;align=center;verticalAlign=middle;resizable=0;points=[];autosize=1;strokeColor=none;fillColor=none;" vertex="1" parent="1">
                    <mxGeometry x="-150" y="192.5" width="140" height="30" as="geometry"/>
                </mxCell>
                <mxCell id="147" value="" style="whiteSpace=wrap;html=1;aspect=fixed;" vertex="1" parent="1">
                    <mxGeometry x="70" y="200" width="15" height="15" as="geometry"/>
                </mxCell>
                <mxCell id="148" value="" style="ellipse;whiteSpace=wrap;html=1;aspect=fixed;" vertex="1" parent="1">
                    <mxGeometry x="-10" y="202.5" width="10" height="10" as="geometry"/>
                </mxCell>
                <mxCell id="149" style="edgeStyle=none;jumpSize=6;html=1;strokeWidth=1;endArrow=halfCircle;endFill=0;startSize=6;endSize=6;exitX=0;exitY=0.5;exitDx=0;exitDy=0;entryX=1;entryY=0.5;entryDx=0;entryDy=0;" edge="1" parent="1" source="147" target="148">
                    <mxGeometry relative="1" as="geometry">
                        <mxPoint x="823" y="207" as="targetPoint"/>
                        <mxPoint x="822" y="-210" as="sourcePoint"/>
                    </mxGeometry>
                </mxCell>
                <mxCell id="151" style="edgeStyle=none;html=1;entryX=1;entryY=0.5;entryDx=0;entryDy=0;endArrow=none;endFill=0;" edge="1" parent="1" source="150" target="147">
                    <mxGeometry relative="1" as="geometry"/>
                </mxCell>
            </root>
        </mxGraphModel>
    </diagram>
</mxfile>